<svg width="898" height="750" viewBox="0 0 898 750" fill="none" xmlns="http://www.w3.org/2000/svg" xmlns:xlink="http://www.w3.org/1999/xlink">
<path d="M297.879,432.121C299.05,433.293 300.95,433.293 302.121,432.121C303.293,430.95 303.293,429.05 302.121,427.879L297.879,432.121ZM282,412L279.879,409.879C278.707,411.05 278.707,412.95 279.879,414.121L282,412ZM302.121,396.121C303.293,394.95 303.293,393.05 302.121,391.879C300.95,390.707 299.05,390.707 297.879,391.879L302.121,396.121ZM302.121,427.879L284.121,409.879L279.879,414.121L297.879,432.121L302.121,427.879ZM284.121,414.121L302.121,396.121L297.879,391.879L279.879,409.879L284.121,414.121Z" fill="#000000"/>
<line x1="282" y1="409" x2="328" y2="409" stroke="#000000" stroke-width="3" stroke-miterlimit="3.999327" stroke-linecap="round" stroke-linejoin="round"/>
<path d="M898,374.087C898,580.657 696.976,748.115 449,748.115C201.024,748.115 0,580.657 0,374.087C0,167.517 201.024,0.059 449,0.059C696.976,0.059 898,167.517 898,374.087Z" fill="#FFDC5C"/>
</svg>
