<svg width="50" height="44" viewBox="0 0 50 44" fill="none" xmlns="http://www.w3.org/2000/svg" xmlns:xlink="http://www.w3.org/1999/xlink">
<path d="M19.879,42.121C21.05,43.293 22.95,43.293 24.121,42.121C25.293,40.95 25.293,39.05 24.121,37.879L19.879,42.121ZM4,22L1.879,19.879C0.707,21.05 0.707,22.95 1.879,24.121L4,22ZM24.121,6.121C25.293,4.95 25.293,3.05 24.121,1.879C22.95,0.707 21.05,0.707 19.879,1.879L24.121,6.121ZM24.121,37.879L6.121,19.879L1.879,24.121L19.879,42.121L24.121,37.879ZM6.121,24.121L24.121,6.121L19.879,1.879L1.879,19.879L6.121,24.121Z" fill="#000000"/>
<line x1="4" y1="19" x2="50" y2="19" stroke="#000000" stroke-width="3" stroke-miterlimit="3.999327" stroke-linecap="round" stroke-linejoin="round"/>
</svg>
