<svg width="470" height="110" viewBox="0 0 470 110" fill="none" xmlns="http://www.w3.org/2000/svg" xmlns:xlink="http://www.w3.org/1999/xlink">
<path d="M467.527,12.854C466.083,10.248 464.365,8.123 462.371,6.479L456.459,11.546C456.958,12.663 457.068,13.879 456.777,15.049C456.487,16.218 455.807,17.29 454.821,18.135C453.835,18.981 452.584,19.563 451.22,19.812C449.856,20.062 448.436,19.967 447.134,19.54L442.119,23.838C444.446,24.761 447.033,25.222 449.882,25.222C457.765,25.222 463.647,21.703 467.527,14.665C467.683,14.382 467.764,14.072 467.764,13.759C467.764,13.446 467.683,13.137 467.527,12.854L467.527,12.854Z" fill="#000000" fill-opacity="0.8"/>
<path d="M449.718,17.7C450.936,17.7 452.104,17.285 452.966,16.547C453.827,15.808 454.311,14.807 454.311,13.762C454.311,13.647 454.305,13.533 454.294,13.42L449.318,17.685C449.45,17.695 449.583,17.7 449.718,17.7ZM464.923,1.583L463.171,0.082C463.109,0.03 463.026,0 462.939,0C462.852,0 462.768,0.03 462.707,0.082L458.223,3.927C455.75,2.843 452.969,2.301 449.882,2.301C441.999,2.301 436.117,5.821 432.237,12.859C432.081,13.142 432,13.451 432,13.764C432,14.077 432.081,14.386 432.237,14.669C433.787,17.468 435.654,19.712 437.838,21.4L433.498,25.118C433.437,25.171 433.402,25.242 433.402,25.317C433.402,25.391 433.437,25.463 433.498,25.515L435.249,27.016C435.311,27.069 435.394,27.099 435.481,27.099C435.568,27.099 435.652,27.069 435.713,27.016L464.923,1.981C464.954,1.955 464.978,1.924 464.994,1.889C465.011,1.855 465.019,1.819 465.019,1.782C465.019,1.745 465.011,1.708 464.994,1.674C464.978,1.64 464.954,1.609 464.923,1.583ZM442.499,13.762C442.499,12.694 442.822,11.643 443.436,10.713C444.05,9.783 444.935,9.005 446.005,8.456C447.074,7.906 448.291,7.603 449.537,7.576C450.784,7.549 452.017,7.8 453.117,8.303L451.123,10.013C450.319,9.792 449.459,9.765 448.638,9.936C447.818,10.106 447.068,10.467 446.47,10.979C445.873,11.491 445.452,12.134 445.253,12.837C445.054,13.541 445.085,14.277 445.343,14.967L443.349,16.676C442.789,15.78 442.497,14.779 442.499,13.762L442.499,13.762Z" fill="#000000" fill-opacity="0.8"/>
<path d="M465.527,94.854C464.083,92.248 462.365,90.123 460.371,88.479L454.459,93.546C454.958,94.663 455.068,95.879 454.777,97.049C454.487,98.218 453.807,99.29 452.821,100.135C451.835,100.981 450.584,101.563 449.22,101.812C447.856,102.062 446.436,101.967 445.134,101.54L440.119,105.838C442.446,106.761 445.033,107.222 447.882,107.222C455.765,107.222 461.647,103.703 465.527,96.665C465.683,96.382 465.764,96.072 465.764,95.759C465.764,95.446 465.683,95.137 465.527,94.854L465.527,94.854Z" fill="#000000" fill-opacity="0.8"/>
<path d="M447.718,99.7C448.936,99.7 450.104,99.285 450.966,98.547C451.827,97.808 452.311,96.807 452.311,95.762C452.311,95.647 452.305,95.533 452.294,95.42L447.318,99.685C447.45,99.695 447.583,99.7 447.718,99.7ZM462.923,83.583L461.171,82.082C461.109,82.03 461.026,82 460.939,82C460.852,82 460.768,82.03 460.707,82.082L456.223,85.927C453.75,84.843 450.969,84.301 447.882,84.301C439.999,84.301 434.117,87.821 430.237,94.859C430.081,95.142 430,95.451 430,95.764C430,96.077 430.081,96.386 430.237,96.669C431.787,99.468 433.654,101.712 435.838,103.4L431.498,107.118C431.437,107.171 431.402,107.242 431.402,107.317C431.402,107.391 431.437,107.463 431.498,107.515L433.249,109.016C433.311,109.069 433.394,109.099 433.481,109.099C433.568,109.099 433.652,109.069 433.713,109.016L462.923,83.981C462.954,83.955 462.978,83.924 462.994,83.889C463.011,83.855 463.019,83.819 463.019,83.782C463.019,83.745 463.011,83.708 462.994,83.674C462.978,83.64 462.954,83.609 462.923,83.583ZM440.499,95.762C440.499,94.694 440.822,93.643 441.436,92.713C442.05,91.783 442.935,91.005 444.005,90.456C445.074,89.906 446.291,89.603 447.537,89.576C448.784,89.549 450.017,89.8 451.117,90.303L449.123,92.013C448.319,91.792 447.459,91.765 446.638,91.936C445.818,92.106 445.068,92.467 444.47,92.979C443.873,93.491 443.452,94.134 443.253,94.837C443.054,95.541 443.085,96.277 443.343,96.967L441.349,98.676C440.789,97.78 440.497,96.779 440.499,95.762L440.499,95.762Z" fill="#000000" fill-opacity="0.8"/>
<line x1="0.009" y1="50.555" x2="468.026" y2="50.555" fill="#D9D9D9"/>
<line x1="0.009" y1="50.555" x2="468.026" y2="50.555" stroke="#D9D9D9" stroke-width="1" stroke-miterlimit="3.999327"/>
<line x1="0.009" y1="50.555" x2="468.026" y2="50.555" stroke="#000000" stroke-opacity="0.2" stroke-width="1" stroke-miterlimit="3.999327"/>
</svg>
