<svg width="36" height="28" viewBox="0 0 36 28" fill="none" xmlns="http://www.w3.org/2000/svg" xmlns:xlink="http://www.w3.org/1999/xlink">
<path d="M35.527,12.854C34.083,10.248 32.365,8.123 30.371,6.479L24.459,11.546C24.958,12.663 25.068,13.879 24.777,15.049C24.487,16.218 23.807,17.29 22.821,18.135C21.835,18.981 20.584,19.563 19.22,19.812C17.856,20.062 16.436,19.967 15.134,19.54L10.119,23.838C12.446,24.761 15.033,25.222 17.882,25.222C25.765,25.222 31.647,21.703 35.527,14.665C35.683,14.382 35.764,14.072 35.764,13.759C35.764,13.446 35.683,13.137 35.527,12.854L35.527,12.854Z" fill="#000000" fill-opacity="0.8"/>
<path d="M17.718,17.7C18.936,17.7 20.104,17.285 20.966,16.547C21.827,15.808 22.311,14.807 22.311,13.762C22.311,13.647 22.305,13.533 22.294,13.42L17.318,17.685C17.45,17.695 17.583,17.7 17.718,17.7ZM32.923,1.583L31.171,0.082C31.109,0.03 31.026,0 30.939,0C30.852,0 30.768,0.03 30.707,0.082L26.223,3.927C23.75,2.843 20.969,2.301 17.882,2.301C9.999,2.301 4.117,5.821 0.237,12.859C0.081,13.142 0,13.451 0,13.764C0,14.077 0.081,14.386 0.237,14.669C1.787,17.468 3.654,19.712 5.838,21.4L1.498,25.118C1.437,25.171 1.402,25.242 1.402,25.317C1.402,25.391 1.437,25.463 1.498,25.515L3.249,27.016C3.311,27.069 3.394,27.099 3.481,27.099C3.568,27.099 3.652,27.069 3.713,27.016L32.923,1.981C32.954,1.955 32.978,1.924 32.994,1.889C33.011,1.855 33.019,1.819 33.019,1.782C33.019,1.745 33.011,1.708 32.994,1.674C32.978,1.64 32.954,1.609 32.923,1.583ZM10.499,13.762C10.499,12.694 10.822,11.643 11.436,10.713C12.05,9.783 12.935,9.005 14.005,8.456C15.074,7.906 16.291,7.603 17.537,7.576C18.784,7.549 20.017,7.8 21.117,8.303L19.123,10.013C18.319,9.792 17.459,9.765 16.638,9.936C15.818,10.106 15.068,10.467 14.47,10.979C13.873,11.491 13.452,12.134 13.253,12.837C13.054,13.541 13.085,14.277 13.343,14.967L11.349,16.676C10.789,15.78 10.497,14.779 10.499,13.762L10.499,13.762Z" fill="#000000" fill-opacity="0.8"/>
</svg>
